<svg version="1.1" viewBox="0 0 713 713" xmlns="http://www.w3.org/2000/svg">
  <path d="M 713,356.5 A 356.5,356.5 0 0 1 356.5,713 356.5,356.5 0 0 1 0,356.5 356.5,356.5 0 0 1 356.5,0 356.5,356.5 0 0 1 713,356.5 Z" fill="#346665"/>
  <path d="m338.9 136.8c-2.58 0.02187-5.293 0.6453-8.018 1.945-4.9 2.3-9.601 5.8-13.2 9.9-33.3 37.3-66.4 74.8-99.4 112.3-2.4 2.7-4.8 3.799-8.4 3.799-23.9-0.1-47.9-0.09961-71.9-0.09961-6.2 0-11.9 1.201-15.9 6.301-2.1 2.6-3.3 5.9-4.9 8.9v153.2c3.6 11.6 11.7 15.6 23.5 15.3 23-0.5 46.1-0.1012 69.1-0.2012 3.6 0 6.1 0.9012 8.5 3.701 33.2 37.7 66.3 75.3 99.7 112.7 3.3 3.8 7.6 7.1 12 9.4 10 5.1 19.7 1.4 23.5-9.1 1.9-5.3 2.801-11.3 2.801-16.9v-386.8c0-3.4-0.2-6.899-1-10.2-2.1-8.85-8.644-14.21-16.38-14.15zm136.2 37.23c-8.3 0.08855-15.93 7.163-16.82 16.02-0.9 9.5 3.998 15.3 11.9 19.7 50.4 27.9 80.3 70.2 87.5 127.5 5.5 43.4-5.6 83-31.5 118.3-14.9 20.2-33.7 36.1-56 47.8-5.6 2.9-10.2 6.699-11.6 13.2-1.5 7 0.2004 13.2 5.9 18 6 5 12.8 5.8 19.6 2.4 7.5-3.7 14.9-7.9 21.8-12.6 44.9-30.7 73.5-72.7 85.1-125.9 2.2-10.4 3.199-21.1 4.699-31.7l-0.09961 0.1016v-20.6c-0.9-7.5-1.6-15.1-2.9-22.6-9.8-56.3-38.3-100.9-85-133.7-8.3-5.8-17.4-10.9-26.8-14.8-1.912-0.7875-3.864-1.14-5.779-1.119zm-44.8 71.46c-5.93 0.03223-11.39 3.205-15.02 8.955-5.2 8.4-2.402 18.3 6.398 25.3 8 6.4 16.3 12.6 23.2 20.1 29.5 32.4 29.6 80.9 0 113.3-7 7.6-15.5 13.8-23.6 20.3-6.4 5.1-10.7 11-8.9 19.5 2.9 13.7 16.7 19.1 28.6 11.2 7.3-4.9 14.5-10.2 21-16.2 26.5-24.7 41.1-55 41.5-95.7h0.09961c-1.4-43-23.8-77.9-62.4-103.3-3.6-2.362-7.325-3.474-10.88-3.455z" fill="#f6b05c"/>
</svg>
